<svg xmlns="http://www.w3.org/2000/svg" enable-background="new 0 0 3800 3000" viewBox="0 0 3800 3000"><path fill="#e4eaf4" d="M3510.33,2109.53c0,160.77-23.29,316.1-66.66,462.8H318.19c-43.37-146.69-66.66-302.03-66.66-462.8
		c0-899.9,729.51-1629.41,1629.39-1629.41C2780.82,480.12,3510.33,1209.63,3510.33,2109.53z"/><path fill="#3a3a77" d="M3363.83,2519.6c0,0-22.05-160.1,21.86-144.3C3429.61,2391.1,3409.45,2455.27,3363.83,2519.6z"/><path fill="#59599b" d="M3360.93,2518.06c0,0,89.8-157.93,151.76-103.63C3574.65,2468.73,3360.93,2518.06,3360.93,2518.06z"/><path fill="#f2f8ff" d="M3509.25,2416.2c-1.8,4.93-4.74,9.11-10.06,10.4c-6.65,1.61-13.88-0.34-20.57-0.72
				c-7.62-0.43-14.93,0.7-21.84,4.02c-6.67,3.21-12.39,8.06-18.03,12.77c-5.66,4.73-11.42,9.87-18.04,13.22
				c-6.28,3.17-13.72,4.53-20.62,5.61c-0.01,0-0.01,0-0.02,0c31.01-38.09,74.85-76.71,110.27-49
				C3510.05,2413.74,3509.69,2414.98,3509.25,2416.2z" opacity=".5"/><path fill="#59599b" d="M3487.3,2605.06h-775.28l11.12-38.76l26.16-91.8c18.53-64.8,82.9-105.35,149.39-94.02l33.56,5.82
					c2.54,0.42,4.98,0.64,7.41,0.64c14.82,0,28.9-7.41,37.27-20.01c57.6-86.4,187.83-75.7,230.61,18.95l5.72,12.71
					c10.09,22.42,36.42,32.44,58.86,22.39l33.47-14.98c19.59-8.79,41.4-2.22,53.47,13.24c4.45,5.61,7.62,12.39,8.9,20.01l4.97,29.01
					c1.27,7.2,4.03,13.55,7.94,18.85c0.74,0.95,1.48,1.91,2.22,2.75c6.78,7.84,15.99,13.03,26.05,14.83
					c2.54,0.53,5.29,0.74,7.94,0.74c8.4,0,16.91-2.3,24.64-7.46c17.43-11.63,40.8-8.74,55.62,6.08l22.49,22.49
					C3548.8,2555.51,3528.28,2605.06,3487.3,2605.06z"/><path fill="#f2f8ff" d="M3517.64,2543.18c-4.54-6.75-7.28-14.62-12.16-21.14c-10.09-13.48-28.58-16.19-44.3-13.55
					c-10.58,1.77-20.55,5.56-31.44,4.59c-8.49-0.76-16.94-2.1-25.19-4.27c-16.2-4.26-32.61-12.2-41.7-26.91
					c-9.04-14.63-4.73-34-15.43-47.89c-11.5-14.93-31.3-13.53-47.26-7.69c-8.94,3.27-16.88,8.76-25.85,11.84
					c-10.53,3.62-21.84,4.08-32.67,1.59c-5.61-1.28-11.03-3.27-16.19-5.81c-3.19-1.57-6.11-3.28-8.37-6.1
					c-3.71-4.62-5.1-10.74-4.89-16.57c0.13-3.55,0.92-7.1,2.27-10.35c10.83,20.74,36.03,29.73,57.66,20.05l33.47-14.98
					c19.59-8.79,41.4-2.22,53.47,13.24c4.45,5.61,7.62,12.39,8.9,20.01l4.97,29.01c1.27,7.2,4.03,13.55,7.94,18.85
					c0.74,0.95,1.48,1.91,2.22,2.75c6.78,7.84,15.99,13.03,26.05,14.83c2.54,0.53,5.29,0.74,7.94,0.74c8.4,0,16.91-2.3,24.64-7.46
					c17.43-11.63,40.8-8.74,55.62,6.08l22.49,22.49c8.18,8.18,12.41,17.99,13.35,27.86
					C3526.71,2552.97,3521.47,2548.87,3517.64,2543.18z" opacity=".2"/><path fill="#3a3a77" d="M3418.87,2605.06h-706.86l11.12-38.76c34.94-31.34,83.22-46.69,132.35-38.22l26.15,4.45l14.08,2.33
					c3.07,0.53,6.14,0.74,9.11,0.74c6.56,0,13.02-1.16,19.06-3.49c10.17-3.92,19.06-10.8,25.41-20.33
					c8.89-13.44,19.38-24.88,30.81-34.3c4.45-3.81,9-7.2,13.76-10.27c25.73-17.05,55.27-25.52,84.92-25.83
					c17.36-0.32,34.62,2.22,51.14,7.62c40.13,12.71,75.7,41.61,95.5,85.55l6.88,15.04c12.18,27,43.83,38.96,70.73,26.89l20.33-9.11
					l19.59-8.79c8.9-4.02,18.22-5.29,27.11-4.45c23.08,2.22,43.41,19.38,47.65,44.26L3418.87,2605.06z"/><path fill="#c0b7cc" d="M3319.83 2465.42c0 7.61-6.17 13.78-13.78 13.78s-13.78-6.17-13.78-13.78c0-7.61 6.17-13.78 13.78-13.78S3319.83 2457.81 3319.83 2465.42zM3137.29 2528.09c0 7.61-6.17 13.78-13.78 13.78-7.61 0-13.78-6.17-13.78-13.78 0-7.61 6.17-13.78 13.78-13.78C3131.12 2514.31 3137.29 2520.48 3137.29 2528.09zM2844.88 2428.27c0 7.61-6.17 13.78-13.78 13.78-7.61 0-13.78-6.17-13.78-13.78 0-7.61 6.17-13.78 13.78-13.78C2838.71 2414.49 2844.88 2420.66 2844.88 2428.27z"/><path fill="#deeefc" d="M3172.73 2398.14c0 6.2-5.03 11.23-11.22 11.23-6.2 0-11.23-5.03-11.23-11.23 0-6.2 5.03-11.23 11.23-11.23C3167.7 2386.91 3172.73 2391.94 3172.73 2398.14zM2911.57 2508.04c0 6.2-5.03 11.22-11.23 11.22-6.2 0-11.23-5.03-11.23-11.22 0-6.2 5.03-11.23 11.23-11.23C2906.54 2496.82 2911.57 2501.84 2911.57 2508.04z"/><g><path fill="#3a3a77" d="M3322.52,2597.8c0,0-62.15-78.36-33.78-83.76C3317.11,2508.63,3326.57,2549.17,3322.52,2597.8z"/><path fill="#f2f8ff" d="M3320.52,2549.63c-2.9-0.69-4.71-2.72-5.95-5.33c-2.5-5.26-2.31-11.41-5.18-16.51
					c-1.45-2.57-3.69-4.53-6.35-5.76c-2.63-1.21-5.56-1.82-8.06-3.3c-2.42-1.43-2.86-3.17-0.99-5.16
					c14.84,0.2,23.61,14.63,27.32,36.21C3321.05,2549.72,3320.78,2549.69,3320.52,2549.63z" opacity=".15"/><path fill="#deeefc" d="M3322.52,2597.8c0,0,39.18-105.38,82.41-78.36C3448.17,2546.47,3322.52,2597.8,3322.52,2597.8z"/><path fill="#f2f8ff" d="M3403.17,2518.5c-0.45,1.01-1.46,1.94-2.24,2.25c-1.72,0.7-3.95,0.43-5.78,0.39
					c-4.02-0.08-8.15-0.36-12.11,0.44c-4.27,0.85-8.34,3.33-11.85,5.8c-6.45,4.55-10.62,11.66-17.25,15.91
					c-1.07,0.68-2.6,1.44-4.32,2.1C3364.17,2524.44,3383.18,2507.63,3403.17,2518.5z" opacity=".2"/><path fill="#c0b7cc" d="M3322.52,2597.8c0,0-144.56-17.57-108.08-40.53C3250.91,2534.3,3322.52,2597.8,3322.52,2597.8z"/><path fill="#f2f8ff" d="M3274.24,2565.72c-4.26-0.78-7.39-3.29-11.01-5.45c-3.43-2.04-7.14-3.7-11.06-4.52
					c-5.54-1.17-11.12,0.25-16.69-0.51c-1.94-0.27-4.23-0.93-4.96-2.86c14.44-0.89,31.13,5.39,46.32,13.58
					C3275.97,2565.93,3275.11,2565.88,3274.24,2565.72z" opacity=".2"/></g><g><path fill="#6a96df" d="M3247.27,1172.23l-3.78,1317.11c-0.19,69.58-60.75,125.48-135.19,125.37l-1409.81-1.56l-970.53-1.17
			c-75.2-0.11-135.53-56.46-135.34-126.36l3.8-1324.68c0.2-70.02,60.86-126.67,136.06-126.35l1429.14,6.58l213.92,0.94l737.26,3.42
			C3187.24,1045.87,3247.47,1102.65,3247.27,1172.23z"/></g><g><path fill="#394ca4" d="M1129.87 1958.66l.06-21.46c.01-3.08 1.5-5.31 5.73-5.3 4.22.02 5.69 2.25 5.68 5.33l-.08 26.78c-.01 3.82-2.74 5.3-5.71 5.29l-44.95-.11c-2.97-.01-5.71-1.51-5.7-5.32.01-3.83 2.76-5.32 5.73-5.31l16.77.05.18-61.42-16.78-.05c-2.97 0-5.71-1.5-5.7-5.32.01-3.82 2.76-5.3 5.73-5.3l28.18.08-.21 72.03L1129.87 1958.66zM1178.44 1958.79l39.24.1c2.97.01 5.69 1.51 5.68 5.33-.01 3.82-2.75 5.3-5.72 5.29l-50.64-.13.09-34.63c.02-7.97 4.37-12 12.93-11.97l32.05.09.07-25.39-39.23-.11c-2.96-.01-5.7-1.5-5.68-5.33.01-3.82 2.76-5.31 5.72-5.3l37.87.11c3.76.01 6.39.55 9.23 3 3.19 2.77 3.52 5.64 3.51 9.46l-.07 21.78c-.01 3.82-.35 6.69-3.56 9.44-2.86 2.43-5.49 2.96-9.25 2.95l-32.17-.09L1178.44 1958.79zM1254.99 1897.6c-2.97-.01-5.7-1.5-5.68-5.33.01-3.83 2.75-5.31 5.71-5.3l39.22.11c6.5.02 11.39 4.6 11.37 10.65l-.06 20.39c-.01 4.25-.93 7.33-4.48 10.29 3.53 2.99 4.43 6.07 4.43 10.31l-.06 20.39c-.02 6.05-4.94 10.61-11.43 10.59l-39.22-.1c-2.97 0-5.7-1.5-5.69-5.32.01-3.82 2.76-5.31 5.72-5.31l39.22.11.05-17.63c.02-5.95-2.49-7.77-5.68-7.77l-22.34-.06c-2.97-.01-5.7-1.5-5.69-5.32.01-3.83 2.76-5.31 5.72-5.3l22.35.06c3.19.01 5.7-1.78 5.72-7.73l.05-17.63L1254.99 1897.6zM1370.44 1932.33l.09-30.69c.01-2.66 1.38-5.31 5.71-5.3 4.33.01 5.69 2.67 5.69 5.33l-.08 30.68c2.95.01 5.69 1.5 5.68 5.33-.02 3.82-2.75 5.3-5.72 5.29l-.06 21.67c-.01 3.4-1.61 5.3-5.72 5.29-4.1-.01-5.69-1.93-5.68-5.32l.06-21.67-33.5-.09.14-50.34c0-2.66 1.38-5.3 5.71-5.3 4.33.02 5.69 2.67 5.68 5.33l-.11 39.72L1370.44 1932.33zM1540.03 1959.75l.06-21.44c.01-3.07 1.49-5.3 5.71-5.29 4.21.01 5.69 2.24 5.68 5.32l-.07 26.75c-.01 3.81-2.75 5.29-5.71 5.29l-44.87-.12c-2.96-.01-5.69-1.5-5.68-5.32.01-3.82 2.76-5.31 5.72-5.29l16.74.05.17-61.36-16.74-.05c-2.96-.01-5.68-1.5-5.68-5.32.01-3.82 2.75-5.31 5.72-5.29l28.13.08-.21 71.97L1540.03 1959.75zM1588.51 1959.87l39.16.11c2.96.01 5.69 1.5 5.68 5.32-.01 3.82-2.74 5.3-5.71 5.29l-50.54-.13.1-34.6c.02-7.96 4.36-11.98 12.89-11.95l31.98.08.08-25.36-39.15-.11c-2.96-.02-5.69-1.5-5.68-5.33.01-3.82 2.75-5.3 5.71-5.29l37.8.11c3.75.01 6.37.55 9.2 3 3.18 2.77 3.51 5.63 3.5 9.46l-.06 21.75c-.01 3.82-.36 6.68-3.56 9.43-2.85 2.44-5.47 2.96-9.23 2.95l-32.11-.09L1588.51 1959.87zM1664.91 1898.75c-2.96-.01-5.69-1.5-5.68-5.33.01-3.81 2.74-5.29 5.71-5.28l39.13.11c6.49.02 11.37 4.59 11.35 10.65l-.06 20.37c-.01 4.25-.93 7.32-4.47 10.28 3.51 2.98 4.42 6.06 4.41 10.3l-.05 20.37c-.03 6.05-4.93 10.6-11.42 10.58l-39.14-.1c-2.95-.02-5.68-1.5-5.67-5.32.01-3.82 2.74-5.3 5.71-5.29l39.14.11.05-17.62c.02-5.94-2.48-7.75-5.66-7.76l-22.3-.05c-2.96-.01-5.69-1.51-5.68-5.33.02-3.82 2.75-5.29 5.71-5.29l22.3.07c3.18.01 5.69-1.79 5.71-7.74l.05-17.61L1664.91 1898.75zM1780.14 1933.44l.09-30.66c0-2.65 1.38-5.3 5.69-5.29 4.32.02 5.69 2.67 5.68 5.32l-.09 30.66c2.96 0 5.68 1.5 5.67 5.32-.01 3.81-2.74 5.29-5.7 5.28l-.06 21.65c-.01 3.4-1.61 5.3-5.7 5.29-4.09-.01-5.68-1.92-5.67-5.32l.06-21.64-33.44-.09.14-50.29c.01-2.65 1.38-5.3 5.7-5.29 4.32.01 5.69 2.67 5.67 5.32l-.11 39.67L1780.14 1933.44zM1949.39 1960.83l.07-21.42c0-3.08 1.49-5.3 5.69-5.29 4.21.01 5.69 2.24 5.68 5.32l-.08 26.72c-.01 3.82-2.75 5.29-5.7 5.29l-44.78-.12c-2.95-.01-5.68-1.5-5.67-5.32.01-3.82 2.75-5.3 5.7-5.29l16.71.04.17-61.29-16.71-.05c-2.95-.01-5.68-1.5-5.66-5.31.01-3.82 2.75-5.29 5.7-5.29l28.07.07-.2 71.9L1949.39 1960.83zM1997.76 1960.96l39.09.11c2.95.01 5.67 1.5 5.66 5.31-.01 3.82-2.74 5.29-5.69 5.29l-50.45-.14.1-34.57c.02-7.95 4.35-11.97 12.87-11.94l31.93.09.07-25.34-39.08-.11c-2.95-.01-5.68-1.5-5.67-5.32.01-3.82 2.75-5.29 5.7-5.28l37.73.11c3.74.01 6.36.55 9.19 2.99 3.18 2.78 3.51 5.63 3.49 9.45l-.06 21.73c-.01 3.82-.36 6.68-3.55 9.43-2.85 2.43-5.46 2.95-9.2 2.93l-32.05-.08L1997.76 1960.96zM2074.03 1899.89c-2.96-.01-5.68-1.5-5.67-5.32.01-3.82 2.75-5.29 5.7-5.28l39.06.1c6.48.02 11.35 4.59 11.34 10.64l-.06 20.35c-.01 4.24-.93 7.31-4.46 10.27 3.52 2.98 4.41 6.05 4.4 10.29l-.06 20.35c-.02 6.05-4.91 10.59-11.4 10.57l-39.06-.1c-2.95-.01-5.68-1.5-5.66-5.32.01-3.82 2.74-5.3 5.69-5.29l39.06.11.05-17.6c.01-5.94-2.47-7.75-5.65-7.76l-22.26-.06c-2.96-.01-5.68-1.5-5.67-5.32.01-3.82 2.75-5.29 5.7-5.28l22.26.06c3.18.01 5.68-1.79 5.7-7.72l.05-17.59L2074.03 1899.89zM2189.03 1934.56l.09-30.63c0-2.65 1.37-5.3 5.68-5.29 4.32.02 5.67 2.67 5.66 5.32l-.09 30.63c2.95.01 5.67 1.5 5.66 5.31-.01 3.81-2.73 5.29-5.69 5.29l-.06 21.62c-.01 3.39-1.6 5.29-5.69 5.29-4.09-.01-5.66-1.93-5.66-5.32l.07-21.62-33.38-.09.14-50.24c.01-2.65 1.38-5.3 5.69-5.29 4.31.02 5.67 2.67 5.66 5.33l-.11 39.63L2189.03 1934.56zM2358.17 1890.09c6.24.01 11.33 4.8 11.31 10.63l-.18 61.23c-.01 5.93-4.91 10.58-11.37 10.57l-33.36-.09c-6.45-.02-11.33-4.69-11.31-10.63l.17-61.24c.02-5.83 5.14-10.58 11.37-10.56L2358.17 1890.09zM2357.96 1961.92l.17-61.24-33.35-.09-.17 61.24L2357.96 1961.92zM2439.78 1890.32c6.24.02 11.33 4.8 11.32 10.63l-.18 61.22c-.02 5.93-4.91 10.58-11.37 10.56l-33.34-.09c-6.46-.02-11.33-4.69-11.31-10.62l.18-61.23c.01-5.83 5.13-10.58 11.37-10.56L2439.78 1890.32zM2439.58 1962.14l.18-61.23-33.34-.09-.17 61.23L2439.58 1962.14zM2521.38 1890.56c6.23.02 11.32 4.79 11.3 10.62l-.17 61.21c-.02 5.93-4.91 10.58-11.37 10.56l-33.32-.09c-6.46-.02-11.32-4.69-11.3-10.62l.17-61.22c.02-5.83 5.13-10.57 11.36-10.56L2521.38 1890.56zM2521.17 1962.36l.17-61.22-33.33-.1-.17 61.22L2521.17 1962.36zM2602.93 1890.78c6.23.02 11.32 4.8 11.3 10.62l-.17 61.2c-.02 5.93-4.91 10.57-11.37 10.56l-33.31-.09c-6.45-.02-11.32-4.69-11.31-10.62l.17-61.2c.02-5.82 5.13-10.57 11.36-10.56L2602.93 1890.78zM2602.72 1962.58l.17-61.21-33.31-.09-.17 61.2L2602.72 1962.58zM2765.73 1963l.07-21.38c.01-3.07 1.49-5.29 5.68-5.28 4.19.01 5.66 2.24 5.65 5.31l-.08 26.67c-.01 3.81-2.74 5.28-5.68 5.28l-44.61-.12c-2.94-.01-5.66-1.5-5.65-5.3.01-3.81 2.74-5.29 5.68-5.28l16.65.04.17-61.18-16.65-.05c-2.94-.01-5.66-1.5-5.65-5.31.01-3.82 2.73-5.29 5.68-5.28l27.96.08-.21 71.76L2765.73 1963zM2813.92 1963.14l38.94.1c2.94.01 5.65 1.5 5.65 5.31-.01 3.8-2.74 5.28-5.68 5.27l-50.25-.13.1-34.5c.02-7.93 4.33-11.95 12.82-11.92l31.8.08.07-25.29-38.93-.11c-2.95-.01-5.66-1.49-5.65-5.3.01-3.81 2.73-5.29 5.68-5.28l37.57.11c3.74.01 6.34.54 9.16 2.99 3.17 2.76 3.49 5.61 3.48 9.42l-.06 21.7c-.01 3.81-.36 6.66-3.54 9.4-2.83 2.43-5.43 2.95-9.17 2.94l-31.92-.09L2813.92 1963.14zM2889.88 1902.18c-2.94-.01-5.65-1.49-5.64-5.31.01-3.81 2.73-5.28 5.67-5.27l38.91.11c6.45.02 11.31 4.58 11.29 10.61l-.06 20.31c-.01 4.23-.93 7.29-4.45 10.25 3.5 2.97 4.4 6.03 4.38 10.26l-.05 20.32c-.02 6.03-4.9 10.57-11.35 10.55l-38.91-.1c-2.93-.01-5.65-1.5-5.64-5.3.01-3.81 2.73-5.28 5.67-5.28l38.91.1.05-17.56c.02-5.92-2.47-7.73-5.63-7.74l-22.17-.06c-2.94-.01-5.66-1.5-5.64-5.3 0-3.82 2.73-5.28 5.67-5.27l22.17.05c3.17.01 5.66-1.78 5.68-7.7l.05-17.56L2889.88 1902.18zM3004.44 1936.77l.09-30.57c.01-2.65 1.36-5.28 5.67-5.27 4.3.01 5.64 2.66 5.64 5.31l-.09 30.56c2.94.01 5.65 1.5 5.64 5.31-.01 3.81-2.73 5.28-5.67 5.27l-.06 21.58c-.01 3.39-1.6 5.28-5.67 5.27-4.07-.01-5.65-1.92-5.64-5.31l.06-21.58-33.25-.09.14-50.15c.01-2.64 1.38-5.28 5.67-5.27 4.3.01 5.65 2.66 5.64 5.3l-.12 39.57L3004.44 1936.77z"/></g><g><polygon fill="#394ca4" points="592.69 2350.91 3243.59 2355.41 3244.38 2078.45 593.49 2072.36"/></g><path fill="#f2faff" d="M2439,1441.84c-1.45,503.69-299.38,942.01-740.52,1171.31l-970.53-1.17
		c-75.2-0.11-135.53-56.46-135.34-126.36l3.8-1324.68c0.2-70.02,60.86-126.67,136.06-126.35l1429.14,6.58l213.92,0.94
		C2417.31,1168.44,2439.4,1302.69,2439,1441.84z" opacity=".25"/><path fill="#202c5e" d="M3532.26,2592.74H302.36c-8.96,0-16.22,7.26-16.22,16.22s7.26,16.22,16.22,16.22h3229.9
		c8.96,0,16.22-7.26,16.22-16.22S3541.21,2592.74,3532.26,2592.74z"/><path fill="#f2faff" d="M2161.62,1041.19c-42.97,707.98-673.6,1268.52-1444.46,1267.18c-41.92-0.12-83.19-1.75-124.02-5.33
		l3.28-1142.08c0.2-70.02,60.86-126.67,136.06-126.35L2161.62,1041.19z" opacity=".1"/><g><path fill="#f2faff" d="M1154.47 1425.66L901 1424.86c-20.58-.06-37.23-15.66-37.17-34.83l.55-190.42c.05-19.17 16.79-34.64 37.37-34.56l253.46 1.03c20.54.08 37.15 15.67 37.09 34.82l-.54 190.19C1191.7 1410.25 1175.01 1425.72 1154.47 1425.66zM1350.15 1314.4v19.62c0 23.64-13.07 37.15-38.26 37.15-25.19 0-38.26-13.51-38.26-37.15v-76.8c0-23.63 13.07-37.14 38.26-37.14 25.2 0 38.26 13.5 38.26 37.14v14.35h-24.26v-15.82c0-10.55-5.14-14.56-13.3-14.56-8.17 0-13.3 4.01-13.3 14.56v79.76c0 10.56 5.13 14.36 13.3 14.36 8.16 0 13.3-3.8 13.3-14.36v-21.1H1350.15zM1419.42 1369.48c-1.4-3.8-2.33-6.12-2.33-18.14v-23.21c0-13.72-5.14-18.78-16.8-18.78h-8.87v60.14h-25.66v-147.71h38.73c26.6 0 38.03 11.19 38.03 33.98v11.61c0 15.19-5.37 25.11-16.8 29.97 12.84 4.85 17.04 16.03 17.04 31.43v22.79c0 7.17.23 12.45 2.8 17.94H1419.42zM1391.42 1242.88v45.36h10.03c9.57 0 15.4-3.8 15.4-15.61v-14.56c0-10.55-3.96-15.19-13.06-15.19H1391.42zM1485.19 1284.02h35.23v21.1h-35.23v43.26h44.33v21.1h-69.99v-147.71h69.99v21.11h-44.33V1284.02zM1545.36 1221.77h40.59c25.67 0 38.26 12.88 38.26 36.51v74.7c0 23.63-12.59 36.5-38.26 36.5h-40.59V1221.77zM1571.02 1242.88v105.51h14.47c8.17 0 13.07-3.8 13.07-14.36v-76.8c0-10.55-4.9-14.35-13.07-14.35H1571.02zM1640.53 1221.77h25.66v147.71h-25.66V1221.77zM1677.37 1221.77h79.32v21.11h-26.83v126.61h-25.66v-126.61h-26.83V1221.77zM1878.45 1314.4v19.62c0 23.64-13.07 37.15-38.26 37.15-25.19 0-38.26-13.51-38.26-37.15v-76.8c0-23.63 13.07-37.14 38.26-37.14 25.2 0 38.26 13.5 38.26 37.14v14.35h-24.26v-15.82c0-10.55-5.14-14.56-13.3-14.56-8.17 0-13.3 4.01-13.3 14.56v79.76c0 10.56 5.13 14.36 13.3 14.36 8.16 0 13.3-3.8 13.3-14.36v-21.1H1878.45zM1977.12 1369.48h-25.89l-4.43-26.8h-31.5l-4.43 26.8h-23.56l26.13-147.71h37.56L1977.12 1369.48zM1918.56 1322.64h24.73l-12.36-74.7L1918.56 1322.64zM2042.66 1369.48c-1.4-3.8-2.33-6.12-2.33-18.14v-23.21c0-13.72-5.14-18.78-16.8-18.78h-8.87v60.14H1989v-147.71h38.73c26.6 0 38.03 11.19 38.03 33.98v11.61c0 15.19-5.37 25.11-16.8 29.97 12.83 4.85 17.04 16.03 17.04 31.43v22.79c0 7.17.23 12.45 2.8 17.94H2042.66zM2014.66 1242.88v45.36h10.03c9.57 0 15.39-3.8 15.39-15.61v-14.56c0-10.55-3.96-15.19-13.06-15.19H2014.66zM2082.76 1221.77h40.59c25.67 0 38.26 12.88 38.26 36.51v74.7c0 23.63-12.59 36.5-38.26 36.5h-40.59V1221.77zM2108.42 1242.88v105.51h14.47c8.17 0 13.07-3.8 13.07-14.36v-76.8c0-10.55-4.9-14.35-13.07-14.35H2108.42z"/></g><g><path fill="#33143f" d="M953.97,691.44c-27.14-55.48-43.88-98.33-124.13-45.86s-87.26,2.8-192.75,26.78
				c-105.49,23.98-21.23,109.58-116.58,176.87s-127.38,194.83-25.93,203.78s153.44-149.84,234.34-92.92
				S1034.68,856.45,953.97,691.44z"/><path fill="#33143f" d="M953.97,691.44c-4.87-9.95-9.4-19.49-14.03-28.15c-3.56-1.58-7.21-2.94-10.93-4.09
				c-16.07-5-33.72-6.54-50.27-3.09c-7.86,1.64-15.56,4.52-22.25,9.01c-7.68,5.16-13.79,12.85-18.79,20.53
				c-5.33,8.2-9.66,17.22-12.46,26.61c-2.39,8-1.65,16.86-0.85,25.05c0.85,8.67,2.21,17.3,2.67,26.01c0.4,7.48,0.2,15.27-2.47,22.36
				c-4.97,13.17-17.5,20.44-29.87,25.57c-13.37,5.53-27.57,8.72-40.89,14.37c-5.87,2.49-12.4,5.44-16.41,10.62
				c-2.78,3.59-3.59,7.99-4.12,12.39c-1.58,13.06-3.45,26.81-12.15,37.29c-9.13,11-23.28,15.37-36.93,17.44
				c-14.08,2.14-29.04,0.87-42.64,5.62c-10.62,3.71-17.85,11.93-24.48,20.65c-4.89,6.42-9.44,13.1-14.49,19.4
				c-5.39,6.72-11.18,13.12-17.38,19.1c-24.81,23.89-57.67,40.97-92.94,36.67c-23.33-2.84-42.39-17.46-54.04-37.47
				c-0.81-1.39-1.58-2.81-2.33-4.24c-11.94,45.77,3.93,85.1,58.65,89.93c101.44,8.96,153.44-149.84,234.34-92.92
				C809.8,1017.02,1034.68,856.45,953.97,691.44z" opacity=".35"/><path fill="#fb8a77" d="M1071.29,889.61l198.43-184.23l-26.35-282.99l36.95-15.17c0,0,84.77,279.31,50.75,380.86
				c-20.05,59.82-192.69,197.81-192.69,197.81L1071.29,889.61z"/><polygon fill="#fb8a77" points="741.38 1098.71 606.69 1263.23 378.98 1460.01 383.52 1421.98 513.24 1235.49 695.68 970.6"/><path fill="#383b4b" d="M447.31,2157.15c0,0-2.07,2.61-5.74,1.24c-3.67-1.37-0.82-173.99,4.92-175.22
						c5.74-1.24,8.03,3.81,8.03,3.81S455.65,2144.89,447.31,2157.15z"/><polygon fill="#fb8a77" points="556.58 1990.25 467.1 1998.31 457.47 2044.42 545.68 2042.42"/><path fill="#202234" d="M502.17,1981.61c-26.51-5.16-46.29-6.03-51.45,3.07c-5.52,9-6.56,173.94-6.56,173.94
						s22.83,19.28,29.45-21.07c5.42-31.18,23.7-68.37,31.99-83.7l0.35,0.07c10.55-3.61,20.83,1.09,17.17-4.03
						c-2.28-3.01-8.04-4.94-14.3-6.25c-9.41-8.86-10.55-38.14-2.83-45.61C506.01,1998.02,528.61,1987.12,502.17,1981.61z"/><path fill="#383b4b" d="M469.71 2097.15c-14.3 26.79 3.91 40.39 3.91 40.39 5.42-31.18 23.7-68.37 31.99-83.7l.35.07C496.19 2046.78 483.72 2071.77 469.71 2097.15zM919.29 2229.65c0 0-.38 3.31-4.22 4.08-3.84.77-92.38-147.44-88.15-151.51 4.22-4.08 8.83-1 8.83-1S919.91 2214.83 919.29 2229.65z"/><polygon fill="#fb8a77" points="924.2 2030.22 852.4 2084.22 868.52 2128.48 942.43 2080.3"/><path fill="#202234" d="M873.41,2051.54c-25.25,9.58-42.52,19.27-42.11,29.72c0.06,10.56,86.09,151.28,86.09,151.28
						s29.57,4.36,13.92-33.43c-11.82-29.35-15.89-70.6-16.92-88l0.34-0.12c7.07-8.63,18.27-10.05,12.47-12.48
						c-3.52-1.36-9.44,0.04-15.44,2.23c-12.66-2.57-29.07-26.86-26.43-37.27C885.31,2063.47,898.78,2042.3,873.41,2051.54z"/><path fill="#383b4b" d="M906.7,2166.85c1.96,30.3,24.61,32.27,24.61,32.27c-11.82-29.35-15.89-70.6-16.92-88l0.34-0.12
						C902.67,2110.08,905.24,2137.9,906.7,2166.85z"/><g><path fill="#1a2347" d="M798.98,1397.61c0,0-18.68,3.1,36.52,117.48c31.16,64.57,139.65,154.41,139.65,154.41l158.36,129.88
						l-234.62,241.55l33.55,56.05c0,0,374.64-162.52,404.53-264.6c51.66-176.46-345.88-574.88-388.5-565.21
						C905.85,1276.84,798.98,1397.61,798.98,1397.61z"/></g><g opacity=".2"><path fill="#231f20" d="M1070.53,1996.92c7.77-15.84,12.82-32.53,16.16-49.83c3.26-16.9,3.76-34.3,8.6-50.89
						c6.73-23.06,20.01-40.12,38.34-55.11c13.58-11.1,32.33-21.61,36.66-39.96c6.13-25.98-13.45-52.98-26.8-73.3
						c-14.83-22.58-30.32-46.68-31.67-74.51c-0.66-13.65,3.03-26.8,5.87-40c3.43-15.93,2.89-30.5-2.88-45.85
						c-9.83-26.1-22.9-47.31-16.36-76.1c5.2-22.88,18.17-45.83,36.11-62.39c-85-95.6-167.9-165.95-186.09-161.82
						c-42.62,9.68-149.49,130.44-149.49,130.44s-18.68,3.1,36.52,117.48c31.16,64.57,139.65,154.41,139.65,154.41l158.36,129.89
						l-234.62,241.54l33.55,56.05c0,0,44.1-19.13,103.25-48.39C1049.32,2032.75,1061.39,2015.56,1070.53,1996.92z"/></g><g><path fill="#232b57" d="M783.52,1386.61c0,0-17.51-7.21-30.87,119.09c-7.55,71.3,37.32,204.82,37.32,204.82l66.14,193.84
						l-326.69,81.65l-1.02,65.31c0,0,404.05,59.3,483.24-11.71c136.9-122.75,8.98-670.85-32.34-685.09
						C937.98,1340.29,783.52,1386.61,783.52,1386.61z"/></g><g opacity=".2"><path fill="#231f20" d="M856.11,1904.36l-250.85,62.69c68.95,20.21,144.25,12.21,212.39-17.96
						c27.73-12.28,56.15-30.26,61.22-62.48c4.59-29.17-5.65-60.41-11.98-88.58c-4.32-19.25-8.73-38.12-5.8-57.95
						c3.09-20.87,12.59-40.2,15.58-61.17c6.37-44.62-28.86-82.5-25.65-127.59c4.6-64.69,69.5-142.33,138.63-102.44
						c17.47,10.08,30.89,25.26,42.05,42.15c-18.85-77.3-39.7-132.14-52.39-136.52c-41.32-14.24-195.78,32.09-195.78,32.09
						s-17.5-7.21-30.87,119.09c-7.55,71.3,37.32,204.82,37.32,204.82L856.11,1904.36z"/></g><g><path fill="#ffca1a" d="M947.16,910.67c0,0,81.12-19.67,158.66-58.93c0,0,82.37,91.74,74.18,127.75
					c-7.33,32.22-109.28,74.36-109.28,74.36S931.65,967.35,947.16,910.67z"/><path fill="#231f20" d="M1165.8,957.26c-1.02,3.33-2.06,6.69-3.51,9.86c-1.9,4.15-4.77,7.96-8.01,11.15
					c-7.03,6.93-16.49,10.17-26.26,10.28c-10.29,0.12-20.47-2.7-29.99-6.42c-5.38-2.11-10.63-4.59-15.87-7.01
					c-6.11-2.82-12.16-5.79-18.15-8.85c-22.53-11.52-44.34-24.51-67.53-34.71c-11.51-5.07-23.36-9.41-35.56-12.52
					c-4.88-1.25-9.8-2.29-14.75-3.14c-6.25,56.61,124.56,137.96,124.56,137.96s101.95-42.14,109.28-74.36
					c2.19-9.63-2.1-23.25-9.56-38.04C1168.86,946.71,1167.41,952.01,1165.8,957.26z" opacity=".1"/><path fill="#ffca1a" d="M1142.63,1375.76c12.01-40.66-55.88-95.63-76.05-142.18c-40.96-94.48,51.38-146.69,13.28-216.13
					c-38.1-69.36-66.89-95.87-165.84-113.49c-39.88-7.1-154.33-20.55-158.04,35.66c-1.49,21.62,8.61,90.9,19.65,172.73
					c8.07,59.48,16.59,125.58,21.53,184.8c5.96,71.18-37.99,92.28-49.44,120.2C721.81,1480.87,1117.16,1461.97,1142.63,1375.76z"/><path fill="#ffca1a" d="M775.63,913.39c0,0-124.03,54.02-153.31,156.9c0,0,31.42,93.6,73.02,100.85l87.76-64.35L775.63,913.39z"/></g><g><path fill="#ed7666" d="M350.67,1489.49c0,0-20.19-26.58-5.64-46.68c14.55-20.1,25.75-8.48,25.75-8.48s-15.37,31.18-13.66,39.24
					C358.83,1481.62,359.26,1492.11,350.67,1489.49z"/><path fill="#fb8a77" d="M344.26,1497.29c0,0-20.19-26.58-5.64-46.68c14.55-20.1,25.75-8.48,25.75-8.48s-15.37,31.19-13.66,39.24
					C352.42,1489.42,352.85,1499.91,344.26,1497.29z"/><path fill="#ed7666" d="M335.44,1501.76c0,0-20.19-26.58-5.64-46.68c14.55-20.1,25.75-8.48,25.75-8.48s-15.37,31.19-13.66,39.24
					C343.6,1493.89,344.03,1504.38,335.44,1501.76z"/><path fill="#fb8a77" d="M434.81,1413.17c0,0-13.57-17.21-22.77-20.46c0,0-23.33,27.96-33.9,32.7
					c-10.57,4.74-32.5,0.25-50.56,16.06c-9.62,8.42-19.43,18.24-21.09,26.71c-1.72,8.76,2.15,31.56,7.36,33.19
					c5.22,1.64,5.79-13.47,6.88-22.39c1.09-8.92,7.09-17.14,15.49-21c8.4-3.86,17.49,4.94,17.49,4.94s-19.38,14.46-17.62,19.42
					c1.76,4.97,12.08-3.18,23.9-8.52c11.82-5.34,33.21-11.43,34.95-22.2C396.68,1440.86,434.81,1413.17,434.81,1413.17z"/><path fill="#fff" d="M344.13 1480.6c.07-.08-.75-4.13-2.82-3.44-2.07.68-4.95 4.93-3.49 5.13C339.29 1482.49 342.5 1482.42 344.13 1480.6zM314.55 1501.03c.19-.05-1.42-4.92-2.59-5.91-1.18-.98-1.99-.45-1.99-.45S312.15 1501.68 314.55 1501.03z" opacity=".2"/></g><g><path fill="#33143f" d="M837.06,757.56c8.16,52.52,57.34,88.48,109.86,80.32c52.52-8.16,88.48-57.34,80.32-109.86
					c-8.16-52.52-57.35-88.48-109.86-80.32C864.86,655.86,828.9,705.04,837.06,757.56z"/><path fill="#fb8a77" d="M895.72,827.01l5.17,96.37c0,0,36.32,39.27,60.74,2l-10.71-63.66L895.72,827.01z"/><path fill="#33133f" d="M936.54,930.53c4.67-11.77,4.55-28.56-6.77-36.64c-4.58-3.27-10.13-4.89-14.59-8.34
					c-5.55-4.29-7.59-11.79-7.92-18.51c-0.54-10.97,2.41-22.2,0-32.78l43.66,27.45l10.71,63.66c-9.54,14.56-20.88,17.42-31.18,15.52
					C932.92,937.82,935.01,934.37,936.54,930.53z" opacity=".15"/><path fill="#fb8a77" d="M1006.28,709.94c0,0,29.02,151.73-30.84,165.93c-59.85,14.2-96.34-45.46-96.34-45.46
					s-10.09,8.64-14.48-2.1c-4.39-10.75-20.74-28.35-8.6-37.86c12.13-9.51,18.28,2.06,18.28,2.06l-12.81-33.39
					C861.49,759.11,996.92,660.23,1006.28,709.94z"/><path fill="#33133f" d="M868.74 795.52c0 0-8.65-3.07-10.87 3.65-2.22 6.72 8.49 29.4 17.46 25.07 0 0-12.94-3.38-13.76-18.12C860.74 791.37 867.38 800.47 868.74 795.52zM911.2 826.62c-.06 4.34 5.23 7.94 11.8 8.02 6.57.09 11.94-3.37 12-7.71.05-4.34-5.23-7.94-11.8-8.02C916.63 818.82 911.26 822.28 911.2 826.62zM983.82 815.75c-.06 4.34 5.23 7.93 11.8 8.02 6.57.09 11.95-3.37 12-7.71.05-4.35-5.23-7.94-11.8-8.02C989.25 807.95 983.88 811.4 983.82 815.75z" opacity=".05"/><path fill="#33143f" d="M976.96 779.86c.77-.12 1.4-.72 1.52-1.53.09-.6 2.37-14.55 20.65-15.62.99-.05 1.76-.91 1.7-1.91-.06-1-.91-1.76-1.91-1.7-21.28 1.21-24 18.55-24.03 18.72-.14.99.55 1.9 1.53 2.04C976.6 779.89 976.78 779.89 976.96 779.86zM938.2 785.89c.3-.05.48-.08.54-.09.98-.19 1.62-1.14 1.43-2.12-.19-.98-1.17-1.61-2.12-1.43-.13.02-12.54 2.32-25.17-4.51-.88-.48-1.98-.15-2.46.73-.48.88-.15 1.98.73 2.45C923.58 787.65 935.52 786.31 938.2 785.89zM961.67 819.56c5.04-.78 7.39-3.94 7.52-4.12.49-.68.45-1.6-.09-2.23-3.41-4-2.73-16.32-2.17-20.73.12-.99-.58-1.9-1.57-2.02-1-.12-1.9.58-2.03 1.57-.21 1.66-1.79 15.46 2.05 22.15-1.33 1.07-4.24 2.63-9.13 1.59-.98-.21-1.94.41-2.15 1.39-.21.98.42 1.94 1.4 2.15C957.88 819.82 959.93 819.84 961.67 819.56z"/><path fill="#33133f" d="M982.31 790.43c.87 5.58 4.66 9.62 8.48 9.03 3.82-.59 6.21-5.59 5.34-11.17-.87-5.58-4.66-9.62-8.48-9.03C983.83 779.85 981.44 784.85 982.31 790.43zM920.12 800.09c.87 5.58 4.66 9.62 8.48 9.03 3.82-.59 6.21-5.59 5.34-11.17-.87-5.58-4.66-9.62-8.48-9.03C921.64 789.51 919.25 794.51 920.12 800.09z"/><path fill="#fff" d="M949.62,841.94c1.18,3.65,15.52,7.83,19.32,7.37c10.71-1.29,19.12-8.66,17.94-12.31
						c-1.18-3.65-15.5,0.21-19.14,1.39C964.08,839.57,948.43,838.29,949.62,841.94z"/><path fill="#33133f" d="M974.8,689.19c-1.36-6.35-1.69-10.57-1.69-10.57c63.86-4.2,43.72,65.88,43.72,65.88
					c-23.57-7.54-34.57-29.5-39.61-46.02c-13.33,25.8-47.37,78.72-106.39,89.12l-24.09-28.92L974.8,689.19z"/><path fill="#33143f" d="M965 680.73c13.43 2.38 23.51 14.59 31.03 25.07 6.68 9.3 13.25 19.44 16.19 30.6 2.31 8.74 3.23 17.89 3.33 26.92.11 10.01-1.21 19.93-.7 29.95.64 12.47 3.05 25.68 12.04 34.97 6.94 7.16 16.46 11.09 24.1 17.39 2.24 1.85-.42 5.52-2.67 3.66-6.69-5.52-14.66-9.2-21.29-14.78-8.02-6.75-12.64-15.81-14.84-25.98-3.81-17.58-.12-35.21-1.48-52.89-.69-9.07-2.04-18.69-5.96-26.99-1.83-3.88-4.14-7.61-6.4-11.25-4.08-6.57-8.59-12.93-13.77-18.67-5.33-5.9-11.99-12.05-20.09-13.49C961.63 684.73 962.12 680.22 965 680.73L965 680.73zM921.66 692.08c-26.3 13.34-35.69 43.54-39.57 70.78-3.85 27.04-2.37 54.24-3.96 81.4-.43 7.33-.44 17.96-6.24 23.45-2.12 2.01-4.96-1.52-2.86-3.52 4.67-4.42 4.3-15.27 4.63-21.1.7-12.52.55-25.07.84-37.59.67-28.48 2.19-59.07 14.8-85.17 6.66-13.79 16.72-25.4 30.49-32.38C922.4 686.63 924.25 690.77 921.66 692.08L921.66 692.08z"/></g><g><path fill="#fb8a77" d="M1291.83,415.67c-0.75-4.5-1.75-8.97-3.05-13.07l0.01-0.01c-0.01-0.01-0.01-0.01,0-0.04
						c-0.05-0.21-0.28-1.3-0.64-2.89l-0.01-0.01c-0.29-1.26-0.69-2.8-1.17-4.43l0,0c0,0-4.18-18.67-9.85-19.66
						c-5.67-1-7.59,2.89-7.59,2.89s-3.07-4.66-8.39-3.4c-5.32,1.26-6,5.21-6,5.21s-2.71-4.37-8.76-2.96
						c-6.05,1.41-7.56,6.87-7.56,6.87s-4.51-6.34-11.01,0.75c-6.47,7.06-0.95,20.02-0.78,20.6c0.63,2.46,1.37,4.82,2.17,7.06
						c0.23,0.61,0.34,1.27,0.68,1.82c24.06,39.66,28.43,116.44,36.07,119.52c0,0,38.13,0.74,40.12-8.51
						c-1.31-8.69-20.33-83.07-20.33-83.07S1294.64,432.55,1291.83,415.67z"/><path fill="#fff" d="M1288.78,402.6l0.01-0.01c-0.01-0.01-0.01-0.01,0-0.04c-0.05-0.21-0.28-1.3-0.64-2.89l-0.01-0.01
						c-0.29-1.26-0.69-2.8-1.17-4.43l0,0c0,0-4.18-18.67-9.85-19.66c-5.67-1-7.59,2.89-7.59,2.89s-3.07-4.66-8.39-3.4
						c-5.32,1.26-6,5.21-6,5.21s-2.71-4.37-8.76-2.96c-6.05,1.41-7.56,6.87-7.56,6.87s-4.51-6.34-11.01,0.75
						c-2.33,2.54-3.09,5.84-3.12,9.05c2.26-2.82,5.54-5.27,9.05-5.96c0.9-0.18,1.84-0.23,2.75-0.07c1.04,0.18,2,0.65,3.02,0.92
						c2.2,0.59,4-0.82,5.8-1.93c2.33-1.43,4.73-2.59,7.51-2.58c2.09,0,4.09,0.63,6.1,1.1c2.11,0.5,4.27,0.68,6.33-0.13
						c1.97-0.77,3.8-1.55,5.95-1.55c3.73-0.01,6.68,2.34,8.68,5.3c1.38,2.05,2.3,4.36,3.25,6.63c1.25,2.96,2.44,5.94,3.63,8.92
						c2.04,5.1,4.11,10.13,5.52,15.45c-0.08-1.41-0.21-2.86-0.46-4.39C1291.08,411.17,1290.08,406.71,1288.78,402.6z" opacity=".2"/><path fill="#231f20" d="M1239.33,430.33c0,0-6.26-12.89-0.12-15.89c6.14-2.99,9.28,10.64,25.51,7.71
					c22.46-4.06,16.06-21.69,17.24-24.07c1.19-2.38-1.18-7.55-1.18-7.55s-0.96,5.61-5.44,6.8c-4.49,1.19-17,4.23-25.3,6.05
					c-6.39-8.55-23.82-10.51-24.53-4.28C1224.8,405.32,1233.93,428.94,1239.33,430.33z" opacity=".1"/><path fill="#e57263" d="M1275.88,397.11c1.07-0.43,2.15-0.86,3.2-1.33c-1.07,0.26-2.14,0.54-3.2,0.82
					c-0.44-2.9-1.17-5.8-2.14-8.72c-1-2.99-2.32-6-4.06-8.91c1.53,2.95,2.6,5.93,3.36,8.86c0.75,2.93,1.25,5.86,1.43,8.64l0,0.02
					c0.01,0.14,0.08,0.29,0.18,0.42c-1.62,0.43-3.25,0.86-4.87,1.27c-1.99,0.48-3.97,0.97-5.95,1.44c-0.69-2.86-1.64-5.7-2.84-8.55
					c-1.3-3.07-2.93-6.13-5.01-9.06c1.86,2.99,3.22,6.04,4.26,9.06c1.02,2.99,1.77,6,2.17,8.88c-0.65,0.15-1.29,0.31-1.93,0.45
					c-3.11,0.71-6.23,1.31-9.37,1.84c-0.71,0.12-1.42,0.19-2.13,0.29c-0.98-2.97-2.27-5.89-3.83-8.8c-1.58-2.92-3.49-5.82-5.83-8.53
					c2.13,2.79,3.77,5.69,5.08,8.6c1.3,2.9,2.34,5.84,3.02,8.69l0.01,0.03c0.02,0.07,0.06,0.14,0.1,0.21
					c-0.38,0.05-0.77,0.12-1.15,0.16c-1.58,0.21-3.17,0.33-4.78,0.36c3.19,0.49,6.45,0.33,9.65,0.05c3.22-0.28,6.39-0.85,9.54-1.54
					c3.15-0.69,6.25-1.55,9.31-2.55l4.55-1.59c0.24-0.1,0.47-0.19,0.71-0.29C1275.59,397.37,1275.8,397.29,1275.88,397.11z"/><path fill="#fb8a77" d="M1250.4,404.12c-2.28-3.58-23.26-5.36-23.26-5.36c-7.09,3.06-7.31,24.03-5.37,27.06
					c6.97,13.53,17.1,21.04,21.9,20.55c-1.13-7.5-5-17.26-8.59-26.13c0.25-3.72,1.27-8.87,5.07-9.03
					C1246.09,410.95,1252.68,407.7,1250.4,404.12z"/><path fill="#fff" d="M1226.05,415.41c1.81-2.2,0-11.04,2.76-11.71c13.6-3.31,9.46,3.5,17.3,5.46c0.36,0.09,0.68,0.29,1.04,0.39
					c2.86-1.34,4.59-3.32,3.25-5.43c-2.28-3.58-23.26-5.36-23.26-5.36c-6.69,2.89-7.27,21.74-5.68,26.38
					C1221.17,420.2,1222.9,419.25,1226.05,415.41z" opacity=".2"/><path fill="#fff" d="M1243.67,402.12c0,0,5.55,0.41,6.54,2.42c1,2.01-1.9,1.8-3.71,1.36c-1.81-0.44-3.18-1.23-3.18-1.23
					L1243.67,402.12z" opacity=".2"/><path fill="#231f20" d="M1283.66,443.73c-3.34,4.63-12.35,6.68-20.78,7.71c-6.4,0.78-12.36-1.46-16.88-4.08
					c0.74,0.92,1.5,1.83,2.35,2.69c2.2,2.23,11.24,12.39,19.44,10.63c12.81-2.75,13.82-14.53,15.94-16.43
					C1283.71,444.08,1283.69,443.9,1283.66,443.73z" opacity=".1"/></g><path fill="#231f20" d="M847.37,1183.14c-2.37-7.63-13.22-93.49-6.2-111.42c7.03-17.93,91.01,54.75,151.44,30.67
			s60.67-67.22,73.12-51.76c12.45,15.46-30.57,50.32-22.78,114.55c7.79,64.23-10.03-9.07-60.85-10.82
			C931.28,1152.6,875.5,1273.51,847.37,1183.14z" opacity=".1"/></g><g><path fill="#3a3a77" d="M1242.72,2522.04c0,0-17.68-128.35,17.52-115.69C1295.45,2419.02,1279.29,2470.46,1242.72,2522.04z"/><path fill="#59599b" d="M1240.4,2520.8c0,0,72-126.61,121.66-83.08C1411.73,2481.26,1240.4,2520.8,1240.4,2520.8z"/><path fill="#f2f8ff" d="M1359.3,2439.14c-1.44,3.95-3.8,7.31-8.07,8.34c-5.33,1.29-11.13-0.28-16.49-0.58
				c-6.11-0.34-11.97,0.56-17.51,3.22c-5.35,2.57-9.93,6.46-14.45,10.24c-4.53,3.79-9.15,7.92-14.46,10.6
				c-5.03,2.54-11,3.63-16.53,4.5c-0.01,0-0.01,0-0.02,0c24.86-30.54,60.01-61.5,88.4-39.29
				C1359.94,2437.18,1359.65,2438.17,1359.3,2439.14z" opacity=".5"/><g><path fill="#59599b" d="M1341.7,2590.55H720.16l8.91-31.07l20.97-73.59c14.85-51.95,66.46-84.46,119.77-75.38l26.91,4.67
					c2.04,0.34,3.99,0.51,5.94,0.51c11.88,0,23.17-5.94,29.88-16.04c46.18-69.27,150.59-60.69,184.88,15.19l4.59,10.19
					c8.09,17.97,29.2,26,47.18,17.95l26.83-12.01c15.7-7.04,33.19-1.78,42.87,10.61c3.57,4.5,6.11,9.93,7.13,16.04l3.99,23.26
					c1.02,5.77,3.23,10.87,6.37,15.11c0.59,0.76,1.19,1.53,1.78,2.2c5.43,6.28,12.82,10.44,20.88,11.89
					c2.03,0.42,4.24,0.59,6.37,0.59c6.73,0,13.56-1.85,19.75-5.98c13.97-9.33,32.71-7,44.59,4.88l18.03,18.03
					C1391.01,2550.83,1374.55,2590.55,1341.7,2590.55z"/><path fill="#f2f8ff" d="M1366.03,2540.95c-3.64-5.41-5.83-11.72-9.75-16.95c-8.09-10.81-22.91-12.98-35.52-10.87
					c-8.48,1.42-16.48,4.46-25.21,3.68c-6.81-0.61-13.58-1.68-20.2-3.42c-12.99-3.42-26.14-9.78-33.43-21.57
					c-7.25-11.73-3.8-27.26-12.37-38.39c-9.22-11.97-25.09-10.84-37.89-6.16c-7.17,2.62-13.53,7.02-20.73,9.5
					c-8.44,2.9-17.51,3.27-26.19,1.28c-4.49-1.03-8.85-2.62-12.98-4.66c-2.56-1.26-4.9-2.63-6.71-4.89
					c-2.97-3.71-4.09-8.61-3.92-13.29c0.1-2.84,0.73-5.69,1.82-8.3c8.68,16.62,28.88,23.83,46.22,16.07l26.83-12.01
					c15.7-7.05,33.19-1.78,42.87,10.61c3.57,4.5,6.11,9.93,7.13,16.04l3.99,23.26c1.02,5.77,3.23,10.87,6.37,15.11
					c0.59,0.76,1.19,1.53,1.78,2.2c5.43,6.28,12.82,10.44,20.88,11.89c2.03,0.42,4.24,0.59,6.37,0.59c6.73,0,13.56-1.85,19.75-5.98
					c13.97-9.33,32.71-7,44.59,4.88l18.03,18.03c6.55,6.56,9.95,14.42,10.7,22.34C1373.3,2548.8,1369.1,2545.51,1366.03,2540.95z" opacity=".2"/><path fill="#3a3a77" d="M1286.85,2590.55H720.16l8.91-31.07c28.01-25.13,66.72-37.43,106.11-30.64l20.96,3.56l11.29,1.87
					c2.46,0.42,4.92,0.59,7.3,0.59c5.26,0,10.44-0.93,15.28-2.8c8.15-3.14,15.28-8.66,20.37-16.3c7.13-10.78,15.54-19.95,24.7-27.5
					c3.56-3.06,7.21-5.77,11.03-8.23c20.63-13.67,44.31-20.46,68.08-20.71c13.92-0.25,27.76,1.78,41,6.11
					c32.17,10.19,60.69,33.36,76.56,68.59l5.52,12.06c9.76,21.65,35.14,31.24,56.7,21.56l16.3-7.3l15.7-7.04
					c7.13-3.23,14.6-4.24,21.73-3.56c18.51,1.78,34.8,15.53,38.2,35.48L1286.85,2590.55z"/><path fill="#c0b7cc" d="M1207.44 2478.61c0 6.1-4.95 11.05-11.05 11.05-6.1 0-11.05-4.95-11.05-11.05 0-6.1 4.95-11.05 11.05-11.05C1202.5 2467.56 1207.44 2472.5 1207.44 2478.61zM1061.1 2528.85c0 6.1-4.95 11.05-11.05 11.05-6.1 0-11.05-4.95-11.05-11.05s4.95-11.05 11.05-11.05C1056.16 2517.8 1061.1 2522.75 1061.1 2528.85zM826.67 2448.82c0 6.1-4.95 11.05-11.05 11.05-6.1 0-11.05-4.95-11.05-11.05 0-6.1 4.94-11.05 11.05-11.05C821.73 2437.77 826.67 2442.72 826.67 2448.82z"/><path fill="#deeefc" d="M1089.51 2424.66c0 4.97-4.03 9-9 9-4.97 0-9-4.03-9-9 0-4.97 4.03-9 9-9C1085.48 2415.66 1089.51 2419.69 1089.51 2424.66zM880.14 2512.78c0 4.97-4.03 9-9 9-4.97 0-9-4.03-9-9 0-4.97 4.03-9 9-9C876.11 2503.78 880.14 2507.81 880.14 2512.78z"/><g><path fill="#3a3a77" d="M1209.6,2584.74c0,0-49.83-62.82-27.08-67.15C1205.26,2513.25,1212.85,2545.75,1209.6,2584.74z"/><path fill="#f2f8ff" d="M1208,2546.12c-2.32-0.55-3.77-2.18-4.77-4.28c-2-4.21-1.85-9.15-4.15-13.24
					c-1.16-2.06-2.96-3.63-5.09-4.62c-2.11-0.97-4.46-1.46-6.46-2.64c-1.94-1.15-2.29-2.54-0.79-4.14
					c11.9,0.16,18.93,11.73,21.9,29.03C1208.42,2546.19,1208.2,2546.17,1208,2546.12z" opacity=".15"/><path fill="#deeefc" d="M1209.6,2584.74c0,0,31.41-84.49,66.07-62.82C1310.33,2543.58,1209.6,2584.74,1209.6,2584.74z"/><path fill="#f2f8ff" d="M1274.26,2521.16c-0.36,0.81-1.17,1.55-1.79,1.81c-1.38,0.56-3.17,0.35-4.63,0.32
					c-3.22-0.06-6.53-0.29-9.71,0.35c-3.42,0.68-6.69,2.67-9.5,4.65c-5.17,3.65-8.51,9.34-13.83,12.75
					c-0.86,0.55-2.08,1.16-3.46,1.68C1242.99,2525.92,1258.23,2512.44,1274.26,2521.16z" opacity=".2"/><path fill="#c0b7cc" d="M1209.6,2584.74c0,0-115.9-14.08-86.65-32.49C1152.19,2533.83,1209.6,2584.74,1209.6,2584.74z"/><path fill="#f2f8ff" d="M1170.9,2559.02c-3.41-0.63-5.92-2.64-8.83-4.37c-2.75-1.64-5.73-2.96-8.87-3.62
					c-4.45-0.94-8.92,0.2-13.38-0.41c-1.56-0.21-3.39-0.75-3.98-2.29c11.58-0.72,24.96,4.32,37.13,10.89
					C1172.28,2559.18,1171.59,2559.15,1170.9,2559.02z" opacity=".2"/></g></g></g><g><path fill="#202c5e" d="M3033.67,725.76h-593.68c-31.09,0-56.29,25.2-56.29,56.29v924.79c0,31.09,25.2,56.29,56.29,56.29h593.68
						c31.09,0,56.29-25.2,56.29-56.29V782.05C3089.96,750.96,3064.76,725.76,3033.67,725.76z"/><path fill="#202234" d="M3058.45,1151.77c-5.73,45.22-5.79,90.91-7.99,136.37c-1.98,41.01-4.83,83.62-19.57,122.35
						c-7.74,20.34-18.76,39.79-35.21,54.35c-13.9,12.3-30.85,20.07-48.62,24.96c-38.65,10.62-79.53,10.02-117.43,23.92
						c-11.23,4.12-21.54,9.69-31.98,15.46c-13.04,7.21-26.14,14.34-39.43,21.09c-26.27,13.34-53.43,25.35-81.91,33.13
						c-52.75,14.41-111.75,11.58-157.14-21.58c-37.7-27.54-62.08-68.8-90.12-105.21c-12.59-16.36-26.14-33.16-42.81-45.58
						c-0.83-0.62-1.69-1.2-2.53-1.8v113.88c7.05,21.32,17.28,41.78,30.71,59.36c9.74,12.75,20.75,24.63,28.77,38.62
						c3.81,6.65,7.01,13.72,8.63,21.23c1.18,5.5,2.05,11.05,3.02,16.59c1.49,8.5,3.61,16.13,10.89,21.45
						c12.8,9.35,30.08,13.02,45.34,15.58c20.99,3.53,41.83,3.08,62.96,1.51c20.73-1.54,41.49-2.61,62.26-3.35
						c42.62-1.52,85.28-1.62,127.92-1.63c42.08-0.01,84.32-1.91,126.33,1.37c20.28,1.59,40.31,4.72,60.54,6.75
						c18.47,1.86,36.45,1.25,54.66-2.42c13.91-2.8,27.82-7.01,40.22-14.02c6.19-3.5,12.08-7.82,16.67-13.3
						c5-5.96,7.6-13.2,9.91-20.53c5.47-17.38,7.08-35.55,10.45-53.37c1.67-8.81,3.79-17.56,6.88-25.99c0.03-0.09,0.07-0.17,0.1-0.25
						v-523.17C3071.36,1078.98,3063,1115.81,3058.45,1151.77z" opacity=".2"/><path fill="#fff" d="M3037.52,1675.91h-583.41c0,0-106.28-301.27-32.46-883.62c1.72-13.33,8.75-25.1,22.24-25.1h589.3
							c0.9,0,1.8,0.08,2.62,0.16c12.51,1.47,17.49,13.98,19.05,27.47C3116.25,1317.24,3037.52,1675.91,3037.52,1675.91z"/><path fill="#202234" d="M3037.52,1675.91h-421.45c6.05-17.17,14.31-33.11,24.85-48.07c21.26-30.17,47.58-56.66,58.54-92.79
							c4.91-16.11,5.15-33.11,10.87-48.97c3.76-10.46,9.57-20.19,17.25-28.21c15.45-16.27,36.87-25.1,58.13-30.98
							c45.7-12.43,95.57-11.77,139.31-30.9c18.72-8.18,34.99-21.18,43.49-40.06c12.59-27.8,7.36-61.24-0.16-89.52
							c-10.55-39.98-31.31-77.26-36.79-118.63c-2.94-22.32-1.14-45.78,6.29-67.2c7.93-22.81,19.13-44.31,26.57-67.37
							c6.62-20.68,10.06-42.92,3.27-64.1c-5.8-18.31-18.8-35.65-33.11-48.48c-25.18-22.48-58.62-32.46-91.24-37.69
							c-36.3-5.72-73.09-5.97-109.72-7.6c-31.15-1.39-64.91-2.21-93.94-14.72c-28.45-12.26-55.51-31.07-77.01-53.39
							c-5.56-5.89-11.36-12.67-16.43-20.03h486.94c0.9,0,1.8,0.08,2.62,0.16c12.26,1.55,15.21,14.47,19.05,27.47
							C3116.25,1317.24,3037.52,1675.91,3037.52,1675.91z" opacity=".1"/><path fill="#202c5e" d="M2870.84,781.68c0,4.12-0.59,8.06-1.71,11.77c-34.55,9.65-81.34,15.54-132.89,15.54
						c-51.56,0-98.35-5.88-132.89-15.54c-1.12-3.71-1.71-7.65-1.71-11.77c0-23.54,19.07-42.61,42.61-42.61h0.76
						c1.12-13.3,5.06-25.84,11.24-36.96c15.66-28.02,45.61-46.97,79.98-46.97s64.27,18.95,79.92,46.97
						c6.18,11.12,10.18,23.66,11.3,36.96h0.71C2851.71,739.08,2870.84,758.14,2870.84,781.68z"/><path fill="#202234" d="M2828.17,739.08h-0.71c-1.12-13.3-5.12-25.84-11.3-36.96c-15.65-28.02-45.55-46.97-79.92-46.97
						s-64.33,18.95-79.98,46.97c-0.53,0.95-0.94,1.96-1.43,2.92c2.88-0.13,5.74-0.52,8.41-1.02c9.73-1.83,19.12-5.24,28.29-8.9
						c8.42-3.36,16.69-7.16,25.28-10.05c12.11-4.07,25.1-6.39,37.9-5.7c10.85,0.58,22.27,3.13,31.08,9.81
						c3.62,2.75,6.81,6.34,8.01,10.82c1.26,4.69-0.07,9.26-1.82,13.62c-2.1,5.24-2.83,9.37,1.37,13.92
						c3.37,3.65,8.09,5.72,12.69,7.34c8.78,3.09,18.68,4.92,25.71,11.49c5.6,5.24,9.52,13.26,8.08,21.02
						c-1.27,6.83-6.35,12.14-11.75,16.13c-13.15,9.72-29.76,13.67-45.78,14.9c-29.33,2.27-58.84-0.98-88.11,2.35
						c-8.5,0.97-16.82,2.88-25.17,4.67c20.95,2.28,43.54,3.57,67.23,3.57c51.56,0,98.35-5.88,132.89-15.54
						c1.12-3.71,1.71-7.65,1.71-11.77C2870.84,758.14,2851.71,739.08,2828.17,739.08z" opacity=".15"/><g><path fill="#232b57" d="M2888.57,1471.25c-36.97,0-66.97,29.95-66.97,66.97c0,36.97,30,66.97,66.97,66.97
						c36.97,0,66.97-30,66.97-66.97C2955.54,1501.2,2925.54,1471.25,2888.57,1471.25z M2888.57,1597.58
						c-32.82,0-59.36-26.6-59.36-59.36c0-32.82,26.54-59.42,59.36-59.42s59.37,26.6,59.37,59.42
						C2947.94,1570.99,2921.39,1597.58,2888.57,1597.58z"/><path fill="#232b57" d="M2888.57,1486.62c-23.69,0-43.55,15.96-49.6,37.7h-0.03v0.12c-1.21,4.39-1.91,9-1.91,13.78
						c0,28.46,23.03,51.54,51.54,51.54c28.51,0,51.55-23.08,51.55-51.54C2940.12,1509.71,2917.08,1486.62,2888.57,1486.62z
						 M2888.57,1492.1c20.64,0,38.05,13.54,43.93,32.22h-87.87C2850.52,1505.64,2867.94,1492.1,2888.57,1492.1z M2888.57,1584.29
						c-22.38,0-40.97-15.92-45.17-37.02h90.34C2929.54,1568.36,2910.95,1584.29,2888.57,1584.29z"/><rect width="33.82" height="3.8" x="2861.11" y="1512.31" fill="#232b57"/><rect width="14.48" height="3.8" x="2900.82" y="1512.31" fill="#232b57"/><rect width="33.82" height="3.8" x="2861.11" y="1552.96" fill="#232b57"/><rect width="14.48" height="3.8" x="2900.82" y="1552.96" fill="#232b57"/><rect width="33.82" height="3.8" x="2881.48" y="1561.7" fill="#232b57"/><rect width="14.48" height="3.8" x="2861.11" y="1561.7" fill="#232b57"/></g><g><path fill="#383b4b" d="M2968.43,1260.07h-602.75c-13.6,0-24.63,11.42-24.63,25.51v161.11c0,14.09,11.03,25.51,24.63,25.51h602.79
				c13.58,0,24.59-11.4,24.59-25.47v-161.15C2993.06,1271.49,2982.03,1260.07,2968.43,1260.07z" opacity=".35"/><path fill="#ffca1a" d="M2934.57,1214.11h-624.41c-14.09,0-25.51,11.42-25.51,25.51v161.11c0,14.09,11.42,25.51,25.51,25.51h624.44
				c14.07,0,25.47-11.4,25.47-25.47v-161.15C2960.08,1225.53,2948.66,1214.11,2934.57,1214.11z"/><path fill="#fd1e3a" d="M2386.87,1360.79c-1.08,0-2.17-0.1-3.25-0.33c-4.22-0.87-7.91-3.4-10.24-7.02l-23.71-36.7
				c-4.81-7.44-2.67-17.38,4.78-22.19c7.45-4.83,17.39-2.68,22.21,4.78l14.84,22.99c0,0,94-54.29,98.94-46.91
				c4.93,7.36-94.64,82.67-94.64,82.67C2393.14,1359.86,2390.03,1360.79,2386.87,1360.79z"/><path fill="#f2faff" d="M2578.98 1353.61h-12.72l-2.18-13.01h-15.47l-2.18 13.01h-11.58l12.84-71.71h18.45L2578.98 1353.61zM2550.21 1330.87h12.15l-6.07-36.27L2550.21 1330.87zM2622.19 1299.62v9.32c0 11.47-6.19 17.72-18.8 17.72h-5.96v26.94h-12.61v-71.71h18.57C2616 1281.9 2622.19 1288.14 2622.19 1299.62zM2597.43 1292.14v24.28h5.96c4.01 0 6.19-1.64 6.19-6.76v-10.76c0-5.12-2.18-6.76-6.19-6.76H2597.43zM2665.97 1299.62v9.32c0 11.47-6.19 17.72-18.8 17.72h-5.96v26.94h-12.61v-71.71h18.57C2659.78 1281.9 2665.97 1288.14 2665.97 1299.62zM2641.21 1292.14v24.28h5.96c4.01 0 6.19-1.64 6.19-6.76v-10.76c0-5.12-2.18-6.76-6.19-6.76H2641.21zM2698.75 1353.61c-.69-1.84-1.15-2.97-1.15-8.81v-11.27c0-6.66-2.52-9.12-8.25-9.12h-4.36v29.2h-12.61v-71.71h19.02c13.07 0 18.68 5.43 18.68 16.49v5.64c0 7.38-2.64 12.19-8.25 14.55 6.3 2.36 8.37 7.79 8.37 15.27v11.06c0 3.48.12 6.04 1.37 8.71H2698.75zM2684.99 1292.14v22.03h4.93c4.7 0 7.57-1.85 7.57-7.58v-7.07c0-5.12-1.95-7.38-6.42-7.38H2684.99zM2717.43 1299.11c0-11.47 6.76-18.03 19.14-18.03 12.38 0 19.14 6.56 19.14 18.03v37.29c0 11.47-6.76 18.03-19.14 18.03-12.38 0-19.14-6.56-19.14-18.03V1299.11zM2730.04 1337.12c0 5.12 2.52 7.07 6.53 7.07 4.01 0 6.53-1.95 6.53-7.07v-38.73c0-5.12-2.52-7.07-6.53-7.07-4.01 0-6.53 1.95-6.53 7.07V1337.12zM2782.76 1340.39l9.63-58.5h11.58l-12.38 71.71h-18.8l-12.38-71.71h12.72L2782.76 1340.39zM2822.42 1312.12h17.31v10.25h-17.31v21h21.78v10.24h-34.38v-71.71h34.38v10.24h-21.78V1312.12zM2851.99 1281.9h19.95c12.61 0 18.8 6.25 18.8 17.72v36.27c0 11.47-6.19 17.72-18.8 17.72h-19.95V1281.9zM2864.6 1292.14v51.22h7.11c4.01 0 6.42-1.85 6.42-6.97v-37.29c0-5.12-2.41-6.97-6.42-6.97H2864.6z"/></g><g><path fill="#232b57" d="M2610.06 1024.74v6.09c0 17.55-6.31 28.76-20.33 34.37 16.89 5.61 23.48 18.53 23.48 36.58v13.9c0 26.32-16.32 40.46-47.83 40.46h-49.55V985.49h47.55C2596.03 985.49 2610.06 998.41 2610.06 1024.74zM2547.33 1009.87v45.1h12.33c11.74 0 18.9-4.4 18.9-18.04v-9.51c0-12.19-4.87-17.55-16.04-17.55H2547.33zM2547.33 1079.35v52.42h18.05c10.6 0 16.32-4.15 16.32-16.82v-14.87c0-15.85-6.02-20.72-20.33-20.72H2547.33zM2734.14 1156.14h-31.8l-5.43-30.96h-38.66l-5.44 30.96h-28.93l32.08-170.66h46.11L2734.14 1156.14zM2662.25 1102.02h30.35l-15.18-86.3L2662.25 1102.02zM2776.87 1032.54v123.6h-28.36V985.49h39.53l32.36 102.15V985.49h28.07v170.66h-32.36L2776.87 1032.54zM2912.4 1088.12l-9.75 15.6v52.42h-31.51V985.49h31.51v74.36l41.24-74.36h31.5l-43.82 76.07 43.82 94.59h-32.36L2912.4 1088.12z"/></g></g></svg>